<?xml version="1.0" standalone="no"?>
<!DOCTYPE svg PUBLIC "-//W3C//DTD SVG 20010904//EN"
 "http://www.w3.org/TR/2001/REC-SVG-20010904/DTD/svg10.dtd">
<svg version="1.0" xmlns="http://www.w3.org/2000/svg"
 width="64.000000pt" height="64.000000pt" viewBox="0 0 64.000000 64.000000"
 preserveAspectRatio="xMidYMid meet">

<g transform="translate(0.000000,64.000000) scale(0.100000,-0.100000)"
fill="#000000" stroke="none">
<path d="M140 560 c-18 -18 -20 -31 -18 -98 l3 -77 65 0 c63 0 65 1 68 28 3
25 6 27 53 27 l49 0 0 -40 c0 -40 0 -40 -40 -40 -63 0 -82 -25 -78 -108 l3
-67 65 0 c63 0 65 1 68 28 3 25 6 27 53 27 82 0 89 14 89 170 0 178 9 170
-200 170 -148 0 -162 -2 -180 -20z m348 -12 c17 -17 17 -262 -1 -276 -7 -6
-37 -12 -67 -14 -52 -3 -55 -5 -58 -30 -3 -26 -6 -28 -53 -28 l-49 0 0 59 c0
68 8 78 70 83 l45 3 0 55 0 55 -65 0 c-63 0 -65 -1 -68 -27 -3 -26 -6 -28 -53
-28 l-49 0 0 68 c0 40 5 73 12 80 17 17 319 17 336 0z"/>
<path d="M440 510 c0 -5 9 -10 20 -10 11 0 20 5 20 10 0 6 -9 10 -20 10 -11 0
-20 -4 -20 -10z"/>
<path d="M440 460 c0 -5 9 -10 20 -10 11 0 20 5 20 10 0 6 -9 10 -20 10 -11 0
-20 -4 -20 -10z"/>
<path d="M440 410 c0 -5 9 -10 20 -10 11 0 20 5 20 10 0 6 -9 10 -20 10 -11 0
-20 -4 -20 -10z"/>
<path d="M440 360 c0 -5 9 -10 20 -10 11 0 20 5 20 10 0 6 -9 10 -20 10 -11 0
-20 -4 -20 -10z"/>
<path d="M440 310 c0 -5 9 -10 20 -10 11 0 20 5 20 10 0 6 -9 10 -20 10 -11 0
-20 -4 -20 -10z"/>
<path d="M244 147 c-3 -8 -4 -34 -2 -58 l3 -44 65 0 65 0 0 55 0 55 -63 3
c-47 2 -64 -1 -68 -11z m116 -47 l0 -40 -50 0 -50 0 0 40 0 40 50 0 50 0 0
-40z"/>
</g>
</svg>
